<svg width="16" height="19" viewBox="0 0 16 19" fill="none" xmlns="http://www.w3.org/2000/svg">
<path d="M2 19C1.71667 19 1.479 18.904 1.287 18.712C1.095 18.52 0.999333 18.2827 1 18V15.95C0.7 15.6167 0.458333 15.2457 0.275 14.837C0.0916668 14.4283 0 13.9827 0 13.5V4C0 2.61667 0.641667 1.604 1.925 0.962001C3.20833 0.320001 5.23333 -0.000665629 8 1.03734e-06C10.8667 1.03734e-06 12.9167 0.308334 14.15 0.925001C15.3833 1.54167 16 2.56667 16 4V13.5C16 13.9833 15.9083 14.4293 15.725 14.838C15.5417 15.2467 15.3 15.6173 15 15.95V18C15 18.2833 14.904 18.521 14.712 18.713C14.52 18.905 14.2827 19.0007 14 19H13C12.7167 19 12.479 18.904 12.287 18.712C12.095 18.52 11.9993 18.2827 12 18V17H4V18C4 18.2833 3.904 18.521 3.712 18.713C3.52 18.905 3.28267 19.0007 3 19H2ZM8.05 3H13.65H2.45H8.05ZM12 10H2H14H12ZM2 8H14V5H2V8ZM4.5 14C4.91667 14 5.271 13.854 5.563 13.562C5.855 13.27 6.00067 12.916 6 12.5C6 12.0833 5.854 11.729 5.562 11.437C5.27 11.145 4.916 10.9993 4.5 11C4.08333 11 3.729 11.146 3.437 11.438C3.145 11.73 2.99933 12.084 3 12.5C3 12.9167 3.146 13.271 3.438 13.563C3.73 13.855 4.084 14.0007 4.5 14ZM11.5 14C11.9167 14 12.271 13.854 12.563 13.562C12.855 13.27 13.0007 12.916 13 12.5C13 12.0833 12.854 11.729 12.562 11.437C12.27 11.145 11.916 10.9993 11.5 11C11.0833 11 10.729 11.146 10.437 11.438C10.145 11.73 9.99933 12.084 10 12.5C10 12.9167 10.146 13.271 10.438 13.563C10.73 13.855 11.084 14.0007 11.5 14ZM2.45 3H13.65C13.4 2.71667 12.8623 2.479 12.037 2.287C11.2117 2.095 9.88267 1.99933 8.05 2C6.26667 2 4.96233 2.10433 4.137 2.313C3.31167 2.52167 2.74933 2.75067 2.45 3ZM4 15H12C12.55 15 13.021 14.804 13.413 14.412C13.805 14.02 14.0007 13.5493 14 13V10H2V13C2 13.55 2.196 14.021 2.588 14.413C2.98 14.805 3.45067 15.0007 4 15Z" fill="black"/>
</svg>
