<svg width="13" height="22" viewBox="0 0 13 22" fill="none" xmlns="http://www.w3.org/2000/svg">
<path d="M7.5 4C8.6 4 9.5 3.1 9.5 2C9.5 0.9 8.6 0 7.5 0C6.4 0 5.5 0.9 5.5 2C5.5 3.1 6.4 4 7.5 4ZM3.8 7.4L1.24 20.31C1.11 20.92 1.59 21.5 2.22 21.5H2.3C2.77 21.5 3.17 21.18 3.28 20.72L4.9 13.5L7 15.5V20.5C7 21.05 7.45 21.5 8 21.5C8.55 21.5 9 21.05 9 20.5V14.86C9 14.31 8.78 13.79 8.38 13.41L6.9 12L7.5 9C8.62692 10.2883 10.1696 11.141 11.86 11.41C12.46 11.5 13 11.02 13 10.41C13 9.92 12.64 9.51 12.15 9.43C10.63 9.18 9.37 8.28 8.7 7.1L7.7 5.5C7.42994 5.06816 7.01502 4.74651 6.5295 4.59261C6.04397 4.43871 5.51952 4.46259 5.05 4.66L1.22 6.28C0.857712 6.43485 0.548924 6.69277 0.332018 7.02168C0.115113 7.3506 -0.000343686 7.736 7.68494e-07 8.13V10.5C7.68494e-07 11.05 0.450001 11.5 1 11.5C1.55 11.5 2 11.05 2 10.5V8.1L3.8 7.4Z" fill="black"/>
</svg>
